<svg width="283" height="68.66181635177186" viewBox="0 0 370.3903743315508 89.86457901348754" class="css-1j8o68f"><defs id="SvgjsDefs1769"></defs><g id="SvgjsG1770" featurekey="symbolFeature-0" transform="matrix(1.0721770697460486,0,0,1.0721770697460486,-15.011016815512795,-8.717817835310758)" fill="#ffcd38"><metadata xmlns="http://www.w3.org/2000/svg"><sfw xmlns="http://ns.adobe.com/SaveForWeb/1.0/"><slices><slicesourcebounds y="43.039" x="83.5" bottomleftorigin="true" height="72.736" width="73.318"></slicesourcebounds></slices></sfw></metadata><path xmlns="http://www.w3.org/2000/svg" fill="#ffcd38" d="M58.387,32.316c0,0-36.86-5.887-38.597-5.597s-3.763,1.342-4.921,2.793c-1.158,1.452-1.158,1.839,0,2.224  c1.158,0.386,34.448,14.86,34.448,14.86l-11.77,18.528h-9.746c0,0-2.895-0.289-3.763,1.062c-0.869,1.351-2.798,3.763-2.798,3.763  s-1.447,1.353,0.869,1.737c2.316,0.387,12.737,1.641,12.737,1.641l-1.834,3.088c0,0-1.158,1.93-0.289,2.316  c0.868,0.385,2.219,0.289,2.895-0.869c0.676-1.157,2.123-2.509,2.123-2.509l5.112,10.423c0,0,0.772,1.543,2.316,0  c1.544-1.545,2.026-2.414,2.026-2.414s1.352-2.026,0.386-4.439c-0.965-2.41-3.281-9.647-3.281-9.647s28.562-32.327,33.966-44.195  c5.402-11.868-0.192-14.185-7.43-8.105S58.387,32.316,58.387,32.316z"></path><path xmlns="http://www.w3.org/2000/svg" fill="#ffcd38" d="M61.185,55.185L71.221,42.64c0,0,14.377,27.598,15.438,29.432c1.062,1.832,0.675,4.632,0,6.271  s-1.735,4.439-4.246,1.157C79.905,76.22,61.185,55.185,61.185,55.185z"></path></g>
<g id="SvgjsG1771" featurekey="nameFeature-0" transform="matrix(1.3557330028142813,0,0,1.3557330028142813,97.12884232146153,-15.401126446516248)" fill="#4a4a4a"><path d="M28.12 40.4 c-0.68 0 -1.04 -0.28 -1.48 -0.76 l-19.04 -19.92 l0 15.2 c0 2.72 1.6 3.16 3.88 3.72 c0.32 0.08 0.16 1.36 -0.24 1.36 l-9.48 0 c-0.32 0 -0.56 -1.24 -0.2 -1.36 c1.68 -0.56 3.28 -0.88 3.28 -3.72 l0 -15.52 c0 -2.84 -0.44 -4.2 -1.48 -5.6 c-0.36 -0.48 -0.72 -0.8 -0.72 -0.92 c0 -0.36 0.24 -0.88 0.8 -0.88 l2.96 0 c0.4 0 0.68 0.04 0.96 0.36 l18.64 19.72 l0 -15.04 c0 -2.84 -1.8 -3.16 -3.88 -3.68 c-0.32 -0.08 -0.16 -1.36 0.24 -1.36 l9.48 0 c0.32 0 0.52 1.28 0.2 1.36 c-1.76 0.52 -3.28 0.84 -3.28 3.68 l0 15.56 c0 2.64 0.08 5.56 0.48 7.04 c0.16 0.6 -0.48 0.76 -1.12 0.76 z M50.44 40.64 c-8.32 0 -14.44 -6.16 -14.44 -14.48 c0 -8.08 5.76 -14.8 14.52 -14.8 c8.36 0 14.44 6.12 14.44 14.44 c0 8.12 -5.72 14.84 -14.52 14.84 z M52 37.92 c3.52 0 8.2 -2.32 8.2 -9.88 c0 -8.08 -5.48 -13.96 -11.24 -13.96 c-3.52 0 -8.16 2.32 -8.16 9.84 c0 8.16 5.48 14 11.2 14 z M104.4 38.64 c0.32 0.04 0.08 1.36 -0.2 1.36 l-10.44 0 c-0.28 0 -0.48 -1.32 -0.24 -1.36 c1.68 -0.28 2.92 -1.08 2.8 -3.6 l-0.76 -13.44 l-6.48 13.2 c-0.84 1.72 -1.48 3.48 -1.6 4.12 c-0.08 0.48 -0.92 0.72 -1.56 0.72 c-0.6 0 -1 -0.24 -1.24 -0.72 l-9.24 -17.52 l-0.6 13.64 c-0.12 2.8 1.52 3.44 2.8 3.6 c0.32 0.04 0.08 1.36 -0.2 1.36 l-8.28 0 c-0.32 0 -0.56 -1.32 -0.24 -1.36 c1.72 -0.2 3.16 -0.8 3.32 -3.6 l1.28 -22.96 c0.04 -0.68 1.56 -0.72 1.96 0 l11.6 21.68 l10.76 -21.68 c0.36 -0.72 1.96 -0.68 2 0 l1.28 22.96 c0.16 2.8 1.6 3.4 3.28 3.6 z M137.04 38.64 c0.56 0.08 0.4 1.36 -0.08 1.36 l-10.56 0 c-0.52 0 -0.56 -1.28 -0.12 -1.36 c1.48 -0.28 3.08 -0.8 1.6 -4.24 l-0.44 -1 c-0.4 -0.96 -1.08 -1.04 -2.28 -1.04 l-8.16 0 c-1.2 0 -1.88 0.08 -2.28 1.04 l-0.4 1 c-1.4 3.44 0.12 3.96 2.04 4.24 c0.52 0.08 0.4 1.36 -0.12 1.36 l-8.64 0 c-0.48 0 -0.6 -1.28 -0.12 -1.36 c1.64 -0.28 2.6 -0.84 4.08 -4.24 l6.76 -15.52 c1.56 -3.52 2.04 -5.16 2.04 -6.68 c0 -0.24 2.8 -0.88 2.92 -0.6 l9.76 22.76 c1.44 3.4 2.4 4.04 4 4.28 z M124.88 30.119999999999997 c0.56 0 1.16 -0.08 0.92 -0.64 l-4.68 -11.2 l-4.72 11.2 c-0.24 0.56 0.36 0.64 0.92 0.64 l7.56 0 z M139.8 40.08 c-0.4 0.04 -0.56 -1.36 -0.24 -1.44 c2.32 -0.6 4.12 -0.96 4.12 -3.92 l0 -17.76 c0 -2.56 -1.64 -3.24 -3.36 -3.68 c-0.32 -0.08 -0.12 -1.4 0.2 -1.36 c1.64 0.2 3.32 0.24 5 0.24 c3.12 0 5.92 -0.24 7.96 -0.24 c9.68 0 14.92 5.76 14.92 13.48 c0 7.68 -5.24 14.68 -14.96 14.68 c-1.92 0 -4.4 -0.24 -7.36 -0.24 c-2.48 0 -4.44 0.04 -6.28 0.24 z M153.84 37.96 c6.52 0 9.76 -3.52 9.76 -10.28 c0 -7.64 -4.16 -13.64 -11.36 -13.64 c-2.84 0 -3.76 0.88 -3.76 2.92 l0 17.76 c0 2.16 1.48 3.24 5.36 3.24 z M187.04000000000002 40.64 c-8.32 0 -14.44 -6.16 -14.44 -14.48 c0 -8.08 5.76 -14.8 14.52 -14.8 c8.36 0 14.44 6.12 14.44 14.44 c0 8.12 -5.72 14.84 -14.52 14.84 z M188.6 37.92 c3.52 0 8.2 -2.32 8.2 -9.88 c0 -8.08 -5.48 -13.96 -11.24 -13.96 c-3.52 0 -8.16 2.32 -8.16 9.84 c0 8.16 5.48 14 11.2 14 z"></path></g>
<g id="SvgjsG1772" featurekey="sloganFeature-0" transform="matrix(2.026090873624352,0,0,2.026090873624352,99,49.09962893580246)" fill="#4a4a4a"><path d="M6.92 5.68 l0 1.92 l-2.38 0 l0 12.42 l-1.92 0 l0 -12.42 l-2.62 0 l0 -1.92 l6.92 0 z M22.932999999999996 20.04 l-2.04 0 l-1.1 -3.02 l-0.44 0 l0 3.02 l-1.9 0 l0 -14.32 l2.98 0 c1.32 0 2.38 1.06 2.38 2.38 l0 6.54 c0 0.86 -0.44 1.6 -1.12 2.02 z M19.352999999999994 7.619999999999999 l0 7.5 l1.08 0 c0.26 0 0.48 -0.22 0.48 -0.48 l0 -6.54 c0 -0.26 -0.22 -0.48 -0.48 -0.48 l-1.08 0 z M38.565999999999995 20 l-0.72 -4.94 l-2.02 0 l-0.66 4.94 l-1.92 0 l2.16 -14.3 l2.58 0 l2.5 14.3 l-1.92 0 z M36.086 13.16 l1.48 0 l-0.76 -5.2 z M53.19899999999999 20 l-1.98 0 l-2 -14.28 l1.92 0 l1.04 7.36 l0.96 -7.36 l1.92 0 z M70.21199999999999 12.46 l-2.76 0 l0 5.64 l2.78 0 l0 1.9 l-4.68 0 l0 -14.28 l4.68 0 l0 1.9 l-2.78 0 l0 2.94 l2.76 0 l0 1.9 z M82.74499999999999 18.12 l2.76 0 l0 1.88 l-4.64 0 l0 -14.36 l1.88 0 l0 12.48 z M100.79799999999999 12.46 l-2.76 0 l0 5.64 l2.78 0 l0 1.9 l-4.68 0 l0 -14.28 l4.68 0 l0 1.9 l-2.78 0 l0 2.94 l2.76 0 l0 1.9 z M116.931 20.04 l-2.04 0 l-1.1 -3.02 l-0.44 0 l0 3.02 l-1.9 0 l0 -14.32 l2.98 0 c1.32 0 2.38 1.06 2.38 2.38 l0 6.54 c0 0.86 -0.44 1.6 -1.12 2.02 z M113.351 7.619999999999999 l0 7.5 l1.08 0 c0.26 0 0.48 -0.22 0.48 -0.48 l0 -6.54 c0 -0.26 -0.22 -0.48 -0.48 -0.48 l-1.08 0 z M130.304 20.12 c-1.52 0 -2.74 -1.24 -2.74 -2.74 l0 -2.18 l1.94 0 l0 2.18 c0 0.44 0.36 0.8 0.8 0.8 s0.78 -0.36 0.78 -0.8 l0 -1.9 l-3.52 -4.86 l0 -2.48 c0 -1.52 1.22 -2.76 2.74 -2.76 c1.5 0 2.72 1.24 2.72 2.76 l0 2.16 l-1.94 0 l0 -2.16 c0 -0.46 -0.34 -0.8 -0.78 -0.8 s-0.8 0.34 -0.8 0.8 l0 1.82 l3.52 4.86 l0 2.56 c0 1.5 -1.22 2.74 -2.72 2.74 z"></path></g></svg>