<svg width="371" height="99.89181145243894" viewBox="0 0 320 86.16005300479908" class="css-1j8o68f"><defs id="SvgjsDefs1185"></defs><g id="SvgjsG1186" featurekey="symbolFeature-0" transform="matrix(1.1735549029439152,0,0,1.1735549029439152,-8.678229756106296,-15.597718644796219)" fill="#8785a2"><path xmlns="http://www.w3.org/2000/svg" d="M55.896,13.291c-17.979,0-32.97,12.996-36.099,30.085C9.693,52.243,5.467,60.502,8.216,66.067  c1.919,3.884,6.927,5.838,14.053,5.838c1.275,0,2.637-0.081,4.043-0.206c6.688,9.094,17.456,15.01,29.585,15.01  c20.241,0,36.709-16.468,36.709-36.709S76.138,13.291,55.896,13.291z M81.501,26.594c-2.583,1.1-5.547,2.022-8.808,2.729  c-2.171-5.789-5.231-10.341-8.816-13.096C70.767,17.855,76.872,21.535,81.501,26.594z M56.824,15.341  c5.605,0.555,10.659,6.107,13.85,14.391c-4.299,0.794-9.004,1.236-13.85,1.287V15.341z M47.994,16.209  c-3.601,2.768-6.675,7.35-8.858,13.127c-3.274-0.708-6.248-1.638-8.843-2.743C34.938,21.516,41.072,17.828,47.994,16.209z   M54.824,15.356v15.66c-4.822-0.058-9.494-0.501-13.761-1.291C44.192,21.507,49.166,15.98,54.824,15.356z M21.231,48.251  c0.379-7.582,3.205-14.526,7.697-20.069c2.772,1.237,5.989,2.269,9.537,3.05c-1.659,5.026-2.675,10.823-2.837,17.02H21.231z   M38.042,67.477c-3.866,1.031-7.501,1.731-10.793,2.093c-3.776-5.511-6.004-12.16-6.056-19.318h14.414  C35.631,56.481,36.51,62.345,38.042,67.477z M10.009,65.181c-2.099-4.248,1.473-11.29,9.352-18.704  c-0.111,1.16-0.173,2.335-0.173,3.523c0,7.274,2.136,14.055,5.8,19.766C17.278,70.269,11.769,68.743,10.009,65.181z M28.633,71.441  c3.098-0.406,6.452-1.088,10.024-2.054c2.182,6.357,5.408,11.415,9.265,14.387C40.168,81.943,33.414,77.508,28.633,71.441z   M56.824,84.686v-8.102c-0.345,0.446-0.782,0.825-1.299,1.097l-0.701,0.369v6.589c-5.908-0.675-11.112-6.869-14.213-15.805  c1.08-0.316,2.176-0.656,3.289-1.021l0.441,0.84c0.176,0.334,0.521,0.534,0.885,0.534c0.081,0,0.163-0.01,0.245-0.03l2.435-0.615  l3.563,6.756c0.18,0.34,0.526,0.533,0.886,0.533c0.157,0,0.316-0.037,0.465-0.115l1.308-0.688c0.327-0.172,0.532-0.511,0.534-0.881  l0.031-7.334c0.825-0.239,1.57-0.537,2.352-0.948l2.982-1.569l3.39,15.982c0.065,0.307,0.271,0.565,0.554,0.698  c0.135,0.063,0.28,0.095,0.425,0.095c0.16,0,0.32-0.038,0.466-0.115l4.063-2.139c0.291-0.153,0.487-0.438,0.527-0.766l2.408-19.982  l3.538-1.862c1.209-0.636,2.562-1.966,3.618-3.557c0.849-1.278,1.731-3.046,1.116-4.213c-0.639-1.213-2.579-1.468-4.095-1.468  c-1.521,0-3.674,0.277-5.156,1.058L67.511,49.8l-17.835-9.332c-0.291-0.152-0.639-0.152-0.93,0.001l-4.063,2.138  c-0.277,0.146-0.47,0.413-0.521,0.722c-0.052,0.31,0.046,0.625,0.262,0.852l11.254,11.847l-2.982,1.569  c-0.794,0.418-1.47,0.871-2.146,1.428l-5.99-4.078c-0.305-0.208-0.701-0.23-1.027-0.06l-1.309,0.688  c-0.489,0.257-0.678,0.861-0.421,1.351l3.512,6.688l-1.887,1.658c-0.21,0.185-0.313,0.443-0.325,0.709  c-1.047,0.34-2.081,0.658-3.101,0.954c-1.498-4.975-2.37-10.674-2.394-16.682h8.445l-1.9-2h-6.524  c0.16-6.083,1.152-11.755,2.76-16.623c4.477,0.851,9.38,1.329,14.437,1.389v6.759l2,1.047v-7.804  c5.084-0.053,10.025-0.531,14.537-1.386c1.251,3.74,2.134,7.959,2.551,12.472c0.656-0.081,1.326-0.128,1.998-0.133  c-0.418-4.616-1.299-8.917-2.553-12.75c3.536-0.78,6.75-1.805,9.51-3.035c4.491,5.541,7.316,12.484,7.694,20.064h-7.35  c0.138,0.63,0.161,1.295,0.049,2H90.6c-0.061,8.444-3.153,16.178-8.239,22.172c-2.587-1.106-5.58-2.058-8.872-2.793l-0.24,1.993  c2.828,0.642,5.418,1.444,7.695,2.368C74.821,80.38,66.291,84.436,56.824,84.686z M57.517,55.059L46.784,43.761l2.429-1.278  l16.146,8.449L57.517,55.059z M71.813,49.795c0.94-0.494,2.639-0.827,4.225-0.827c1.36,0,2.099,0.247,2.305,0.396  c0.026,0.903-1.948,4.059-3.876,5.072l-3.997,2.104c-0.002,0.001-0.004,0.001-0.006,0.002l-10.198,5.367  c-0.001,0-0.001,0.001-0.002,0.001l-4.15,2.185c-0.791,0.417-1.502,0.688-2.375,0.91l-7.692,1.944l-0.354-1.008l5.838-5.132  c0.677-0.595,1.304-1.026,2.096-1.442L71.813,49.795z M69.709,59.199l-2.18,18.091l-2.43,1.278l-3.232-15.243L69.709,59.199z   M52.691,67.332l-0.025,5.944l-2.764-5.239L52.691,67.332z M46.859,62.252l-2.715-5.17l4.844,3.298L46.859,62.252z"></path></g><g id="SvgjsG1187" featurekey="nameFeature-0" transform="matrix(2.0109485865043735,0,0,2.0109485865043735,124.66520641020547,-11.714231106584784)" fill="#8785a2"><path d="M6.92 11.8 c0.58668 -0.05332 1.0134 0.17992 1.2801 0.69992 s0.45336 1.1533 0.56004 1.9 s0.14668 1.52 0.12 2.32 s-0.04 1.4533 -0.04 1.96 l0 1.66 l0 2.4 l-0.02 2.68 l-0.04 2.52 l-0.02 1.9 l0 0.84 c0.05332 -0.05332 0.14 -0.34 0.26 -0.86 s0.26668 -1.1467 0.44 -1.88 s0.37332 -1.5133 0.6 -2.34 s0.46 -1.5867 0.7 -2.28 c0.02668 -0.08 0.11336 -0.4 0.26004 -0.96 s0.36 -1.14 0.64 -1.74 s0.63332 -1.1267 1.06 -1.58 s0.94668 -0.61332 1.56 -0.48 c0.48 -0.10668 0.9 0.24 1.26 1.04 s0.66668 1.8533 0.92 3.16 s0.46664 2.76 0.63996 4.36 s0.33332 3.12 0.48 4.56 s0.28 2.6933 0.4 3.76 s0.24668 1.7467 0.38 2.04 c0.42668 0.56 0.98668 0.6 1.68 0.12 s1.48 -1.2667 2.36 -2.36 c0.05332 0.08 0.08664 0.23332 0.09996 0.46 s-0.04 0.50668 -0.16 0.84 s-0.34668 0.72 -0.68 1.16 s-0.80664 0.91332 -1.42 1.42 c-0.96 0.48 -1.74 0.54 -2.34 0.18 s-1.0067 -0.94 -1.22 -1.74 c-0.05332 -0.26668 -0.13332 -0.88 -0.24 -1.84 s-0.22668 -2.08 -0.36 -3.36 s-0.28 -2.6133 -0.44 -4 s-0.32668 -2.6667 -0.5 -3.84 s-0.36 -2.1333 -0.56 -2.88 s-0.39332 -1.0934 -0.58 -1.04 c-0.16 -0.10668 -0.33332 -0.033359 -0.52 0.21996 s-0.38 0.62 -0.58 1.1 s-0.4 1.04 -0.6 1.68 l-0.6 1.92 l-0.52 1.78 l-0.38 1.3 c-0.26668 0.90668 -0.49336 1.7334 -0.68004 2.48 s-0.36 1.5467 -0.52 2.4 s-0.30668 1.82 -0.44 2.9 s-0.25332 2.38 -0.36 3.9 c-0.53332 0.05332 -0.88 -0.013359 -1.04 -0.20004 s-0.38668 -0.36 -0.68 -0.52 c0 -0.50668 0.0066796 -1.32 0.02 -2.44 s0.02 -2.38 0.02 -3.78 s0.0066796 -2.8667 0.02 -4.4 s0.02 -2.9666 0.02 -4.3 c0 -0.05332 0.02 -0.33332 0.06 -0.84 s0.07332 -1.12 0.1 -1.84 s0.05336 -1.5133 0.08004 -2.38 s0.02 -1.7 -0.02 -2.5 s-0.10668 -1.5133 -0.2 -2.14 s-0.24664 -1.0734 -0.45996 -1.34 c-0.32 -0.18668 -0.7 -0.06668 -1.14 0.36 s-0.91332 1.0334 -1.42 1.82 s-1.0134 1.6934 -1.52 2.72 s-0.97336 2.0534 -1.4 3.08 s-0.79336 2 -1.1 2.92 s-0.51336 1.6467 -0.62004 2.18 c-0.08 0.21332 -0.20668 0.4 -0.38 0.56 s-0.35332 0.28 -0.54 0.36 s-0.36668 0.11332 -0.54 0.1 s-0.3 -0.08664 -0.38 -0.21996 c0.24 -0.96 0.56 -2.0067 0.96 -3.14 s0.85332 -2.28 1.36 -3.44 s1.0467 -2.2867 1.62 -3.38 s1.16 -2.06 1.76 -2.9 s1.2 -1.52 1.8 -2.04 s1.18 -0.78 1.74 -0.78 z M36.040000000000006 21.56 c0.21332 1.52 0.23992 3.0067 0.079924 4.46 s-0.44 2.84 -0.84 4.16 s-0.89332 2.5467 -1.48 3.68 s-1.2 2.12 -1.84 2.96 s-1.2733 1.5267 -1.9 2.06 s-1.18 0.85332 -1.66 0.96 c-1.04 0.16 -1.84 0.16 -2.4 0 s-1.0933 -0.56 -1.6 -1.2 c-0.50668 -0.66668 -0.9 -1.5667 -1.18 -2.7 s-0.48 -2.34 -0.6 -3.62 s-0.18 -2.5667 -0.18 -3.86 s0.04 -2.46 0.12 -3.5 c0.13332 -1.2267 0.25332 -2.2467 0.36 -3.06 s0.22 -1.56 0.34 -2.24 s0.25332 -1.3533 0.4 -2.02 s0.32668 -1.44 0.54 -2.32 c-0.37332 -0.02668 -0.74664 -0.10668 -1.12 -0.24 s-0.72 -0.28664 -1.04 -0.45996 s-0.58 -0.36 -0.78 -0.56 s-0.3 -0.38 -0.3 -0.54 c2.4533 0.10668 4.5332 0.34668 6.24 0.72 s3.1134 0.82664 4.22 1.36 s1.9667 1.1066 2.58 1.72 s1.0666 1.2 1.36 1.76 s0.47332 1.0667 0.54 1.52 s0.11336 0.77332 0.14004 0.96 z M24.199900000000003 29.6 c0.05332 0.96 0.13996 1.94 0.25996 2.94 s0.30668 1.9133 0.56 2.74 s0.6 1.5 1.04 2.02 s1.02 0.76668 1.74 0.74 c0.48 0.05332 0.95332 -0.08668 1.42 -0.42 s0.92 -0.77332 1.36 -1.32 s0.86 -1.1734 1.26 -1.88 s0.75332 -1.42 1.06 -2.14 s0.58 -1.4067 0.82 -2.06 s0.41332 -1.1933 0.52 -1.62 c0.21332 -0.88 0.34 -1.7533 0.38 -2.62 s0.01332 -1.68 -0.08 -2.44 s-0.22 -1.4533 -0.38 -2.08 s-0.33332 -1.1267 -0.52 -1.5 c-0.53332 -1.0133 -1.5066 -1.9333 -2.92 -2.76 s-3.0933 -1.3067 -5.04 -1.44 c-0.08 0.29332 -0.17332 0.76664 -0.28 1.42 s-0.22 1.4133 -0.34 2.28 s-0.23332 1.7934 -0.34 2.78 s-0.20668 1.9467 -0.3 2.88 s-0.16 1.7933 -0.2 2.58 s-0.04668 1.42 -0.02 1.9 z M42.96000000000001 13.84 c-0.02668 -0.02668 -0.020195 -0.059884 0.019805 -0.099884 l0.1 -0.1 l0 -0.04 l-0.24 0.04 c-0.58668 0.24 -1.18 0.72668 -1.78 1.46 s-1.1733 1.6 -1.72 2.6 s-1.06 2.0533 -1.54 3.16 s-0.88668 2.14 -1.22 3.1 s-0.58664 1.78 -0.75996 2.46 s-0.23332 1.0867 -0.18 1.22 c-0.29332 0.13332 -0.58 0.20664 -0.86 0.21996 s-0.44668 -0.20668 -0.5 -0.66 c0.10668 -0.56 0.32 -1.32 0.64 -2.28 s0.70668 -1.9933 1.16 -3.1 s0.94 -2.22 1.46 -3.34 s1.0467 -2.1067 1.58 -2.96 c0.64 -1.0133 1.2 -1.7866 1.68 -2.32 s0.70668 -0.8 0.68 -0.8 c0.37332 -0.24 0.74664 -0.40668 1.12 -0.5 s0.76 -0.06 1.16 0.1 c0.24 0.08 0.44 0.33332 0.6 0.76 s0.28668 0.9 0.38 1.42 s0.15332 1.04 0.18 1.56 s0.04 0.9 0.04 1.14 c0 0.74668 -0.02 1.4467 -0.06 2.1 s-0.08 1.34 -0.12 2.06 s-0.08668 1.4867 -0.14 2.3 s-0.09332 1.7533 -0.12 2.82 c0.10668 -0.56 0.3 -1.24 0.58 -2.04 s0.60668 -1.5867 0.98 -2.36 s0.8 -1.48 1.28 -2.12 s1 -1.08 1.56 -1.32 c0.64 -0.05332 1.0533 0.26 1.24 0.94 s0.32 1.54 0.4 2.58 c0 0.10668 0.01332 0.36668 0.04 0.78 s0.06 0.89332 0.1 1.44 s0.08 1.12 0.12 1.72 s0.08668 1.1333 0.14 1.6 s0.10664 0.84 0.15996 1.12 s0.10664 0.38 0.15996 0.3 c0.32 -0.53332 0.66668 -1.12 1.04 -1.76 s0.76 -1.2467 1.16 -1.82 s0.80668 -1.0666 1.22 -1.48 s0.82 -0.67332 1.22 -0.78 c0.45332 -0.10668 0.82 0.11332 1.1 0.66 s0.5 1.2867 0.66 2.22 s0.28668 1.9866 0.38 3.16 s0.19332 2.32 0.3 3.44 s0.23336 2.1533 0.38004 3.1 s0.35336 1.66 0.62004 2.14 c-0.37332 0.16 -0.69332 0.12 -0.96 -0.12 s-0.56 -0.45332 -0.88 -0.64 c-0.08 -0.26668 -0.14 -0.72668 -0.18 -1.38 s-0.08668 -1.3933 -0.14 -2.22 s-0.10664 -1.6867 -0.15996 -2.58 s-0.12664 -1.72 -0.21996 -2.48 s-0.20664 -1.3867 -0.33996 -1.88 s-0.29332 -0.76664 -0.48 -0.81996 c-0.13332 0 -0.22664 -0.03332 -0.27996 -0.1 s-0.17332 0.0066408 -0.36 0.21996 c-0.72 0.8 -1.3133 1.5733 -1.78 2.32 s-0.84 1.42 -1.12 2.02 s-0.48 1.1067 -0.6 1.52 s-0.19332 0.66 -0.22 0.74 c-0.21332 0.58668 -0.41332 1.3934 -0.6 2.42 s-0.30668 2.1 -0.36 3.22 c-0.26668 0.08 -0.43336 0.03332 -0.50004 -0.14 s-0.22 -0.38 -0.46 -0.62 c0.02668 -0.13332 0.04668 -0.55332 0.06 -1.26 s0.01332 -1.58 0 -2.62 s-0.04 -2.1667 -0.08 -3.38 s-0.09332 -2.3933 -0.16 -3.54 s-0.15336 -2.1867 -0.26004 -3.12 s-0.22668 -1.64 -0.36 -2.12 c-0.16 -0.02668 -0.37332 0.10664 -0.64 0.39996 s-0.52668 0.64664 -0.78 1.06 s-0.48664 0.82 -0.69996 1.22 s-0.34664 0.69332 -0.39996 0.88 c-0.53332 1.44 -0.94 2.6467 -1.22 3.62 s-0.48 1.8 -0.6 2.48 s-0.19332 1.26 -0.22 1.74 s-0.08 0.96 -0.16 1.44 c-0.05332 0.72 -0.1 1.3467 -0.14 1.88 s-0.06 1.06 -0.06 1.58 s0.01332 1.08 0.04 1.68 s0.06668 1.3133 0.12 2.14 c-0.4 0.02668 -0.70668 -0.04664 -0.92 -0.21996 s-0.54664 -0.47332 -0.99996 -0.9 c0.02668 -0.26668 0.06668 -0.70668 0.12 -1.32 s0.10664 -1.2533 0.15996 -1.92 s0.1 -1.26 0.14 -1.78 s0.06 -0.80668 0.06 -0.86 c0.08 -0.98668 0.13332 -1.8134 0.16 -2.48 s0.05336 -1.2667 0.08004 -1.8 s0.04668 -1.0533 0.06 -1.56 s0.02 -1.1067 0.02 -1.8 c0.02668 -0.61332 0.04668 -1.14 0.06 -1.58 s0.02 -0.98 0.02 -1.62 c0 -0.08 0.0066796 -0.52 0.02 -1.32 s0.02 -1.7133 0.02 -2.74 s-0.01332 -2.0534 -0.04 -3.08 s-0.08 -1.8334 -0.16 -2.42 z M64.36000000000001 32.4 c-0.37332 0 -0.79356 0.019609 -1.2602 0.059608 s-0.91336 0.06 -1.34 0.06 s-0.80668 -0.03332 -1.14 -0.1 s-0.54 -0.20668 -0.62 -0.42 c-0.16 -0.13332 -0.16 -0.28664 0 -0.45996 s0.30668 -0.32664 0.44 -0.45996 c0.50668 -0.05332 0.94668 -0.09332 1.32 -0.12 s0.72 -0.06 1.04 -0.1 s0.62668 -0.08 0.92 -0.12 s0.6 -0.08668 0.92 -0.14 c0.4 -1.4933 0.77332 -2.92 1.12 -4.28 s0.68 -2.7067 1 -4.04 s0.63332 -2.68 0.94 -4.04 s0.63336 -2.7867 0.98004 -4.28 c0.24 -0.34668 0.44 -0.52668 0.6 -0.54 s0.42668 -0.0066408 0.8 0.020039 c0.16 0.85332 0.28 1.5733 0.36 2.16 s0.15332 1.18 0.22 1.78 s0.14668 1.2667 0.24 2 s0.22 1.66 0.38 2.78 c0.10668 1.1467 0.25336 2.2734 0.44004 3.38 s0.34668 2.2467 0.48 3.42 c0.69332 -0.10668 1.36 -0.22 2 -0.34 s1.2067 -0.22668 1.7 -0.32 s0.89332 -0.16664 1.2 -0.21996 s0.46 -0.06664 0.46 -0.039961 c0.08 0.24 -0.04668 0.47332 -0.38 0.7 s-0.76664 0.45336 -1.3 0.68004 s-1.1066 0.44 -1.72 0.64 s-1.16 0.38 -1.64 0.54 c0.05332 0.50668 0.14664 1.14 0.27996 1.9 s0.27332 1.5667 0.42 2.42 s0.3 1.7133 0.46 2.58 s0.3 1.6534 0.42 2.36 s0.20668 1.2934 0.26 1.76 s0.05332 0.72668 0 0.78 c-0.45332 0.05332 -0.78 0.0066408 -0.98 -0.14004 s-0.44668 -0.27336 -0.74 -0.38004 c-0.21332 -1.76 -0.48 -3.5533 -0.8 -5.38 s-0.57332 -3.6467 -0.76 -5.46 c-0.61332 0.13332 -1.3933 0.31332 -2.34 0.54 s-1.9267 0.42 -2.94 0.58 c-0.16 0.58668 -0.30668 1.24 -0.44 1.96 s-0.26664 1.4067 -0.39996 2.06 s-0.24664 1.24 -0.33996 1.76 s-0.18 0.86 -0.26 1.02 c-0.13332 0.13332 -0.36664 0.22 -0.69996 0.26 s-0.60664 -0.04668 -0.81996 -0.26 c0 -0.16 0.06 -0.52668 0.18 -1.1 s0.26 -1.2066 0.42 -1.9 s0.32668 -1.3666 0.5 -2.02 s0.31332 -1.1666 0.42 -1.54 z M66.2796 30.4396 c0.4 -0.08 0.84004 -0.16641 1.32 -0.25973 s0.92668 -0.19332 1.34 -0.3 s0.77332 -0.19336 1.08 -0.26004 s0.48668 -0.11336 0.54 -0.14004 c-0.05332 -0.58668 -0.1 -1.0734 -0.14 -1.46 s-0.08 -0.79336 -0.12 -1.22 s-0.08668 -0.92668 -0.14 -1.5 s-0.13332 -1.3533 -0.24 -2.34 c-0.21332 -1.68 -0.36664 -2.9333 -0.45996 -3.76 s-0.18 -1.0934 -0.26 -0.80004 c-0.37332 1.44 -0.7 2.6867 -0.98 3.74 s-0.53332 2.0266 -0.76 2.92 s-0.43336 1.7666 -0.62004 2.62 s-0.37336 1.7733 -0.56004 2.76 z M81.80000000000001 12.36 c0.16 0.16 0.27336 0.33316 0.34004 0.51984 s0.10668 0.38668 0.12 0.6 s0.02 0.46 0.02 0.74 s0.01332 0.60668 0.04 0.98 c1.3867 0.74668 2.88 1.5067 4.48 2.28 s3.1 1.6066 4.5 2.5 s2.62 1.8733 3.66 2.94 s1.72 2.2534 2.04 3.56 c0.26668 1.6267 0.14 3.1734 -0.38 4.64 s-1.34 2.7934 -2.46 3.98 s-2.48 2.1867 -4.08 3 s-3.3333 1.3933 -5.2 1.74 c-0.66668 0.13332 -1.3134 0.17332 -1.94 0.12 s-1.2 -0.19332 -1.72 -0.42 s-0.96668 -0.54 -1.34 -0.94 s-0.64 -0.86668 -0.8 -1.4 c-0.02668 -0.32 0.02 -0.59332 0.14 -0.82 s0.24668 -0.38668 0.38 -0.48 s0.24 -0.12664 0.32 -0.09996 s0.06668 0.14668 -0.04 0.36 c0 0.56 0.10668 1.0067 0.32 1.34 s0.48 0.59332 0.8 0.78 s0.65332 0.32668 1 0.42 s0.64 0.16664 0.88 0.21996 c-0.13332 -0.82668 -0.25332 -1.86 -0.36 -3.1 s-0.22 -2.5733 -0.34 -4 s-0.23332 -2.8934 -0.34 -4.4 s-0.21336 -2.96 -0.32004 -4.36 s-0.22 -2.68 -0.34 -3.84 s-0.23332 -2.1 -0.34 -2.82 c-0.72 -0.32 -1.2933 -0.59332 -1.72 -0.82 s-0.79336 -0.42668 -1.1 -0.6 s-0.60668 -0.32664 -0.9 -0.45996 s-0.66664 -0.26664 -1.12 -0.39996 c-0.21332 -0.26668 -0.27332 -0.48 -0.18 -0.64 s0.16664 -0.38668 0.21996 -0.68 c0.66668 0.16 1.2 0.31332 1.6 0.46 s0.74 0.29336 1.02 0.44004 s0.56 0.28 0.84 0.4 s0.66 0.23332 1.14 0.34 c0 -0.24 -0.0066796 -0.42 -0.02 -0.54 s-0.026641 -0.22 -0.039961 -0.3 s-0.026641 -0.15332 -0.039961 -0.22 s-0.02 -0.16668 -0.02 -0.3 c0.13332 -0.61332 0.56 -0.85332 1.28 -0.72 z M83.2 26.4 c0.05332 0.45332 0.11352 1.0335 0.1802 1.7402 s0.13336 1.4667 0.20004 2.28 s0.14 1.6466 0.22 2.5 s0.14668 1.6533 0.2 2.4 s0.10664 1.4134 0.15996 2 s0.09332 1.0134 0.12 1.28 c0.61332 0.08 1.4466 -0.02668 2.5 -0.32 s2.1466 -0.79332 3.28 -1.5 s2.2 -1.62 3.2 -2.74 s1.7667 -2.48 2.3 -4.08 c0.18668 -1.2267 0.12 -2.3334 -0.2 -3.32 s-0.80668 -1.8734 -1.46 -2.66 s-1.4466 -1.4934 -2.38 -2.12 s-1.9133 -1.2134 -2.94 -1.76 s-2.0734 -1.0534 -3.14 -1.52 s-2.0667 -0.94 -3 -1.42 c0 0.24 0.02668 0.62668 0.08 1.16 s0.10664 1.1333 0.15996 1.8 s0.10664 1.36 0.15996 2.08 s0.10664 1.3867 0.15996 2 s0.1 1.12 0.14 1.52 s0.06 0.62668 0.06 0.68 z"></path></g></svg>